<svg width="1585" height="1132" viewBox="0 0 1585 1132" fill="none" xmlns="http://www.w3.org/2000/svg">
<path d="M652.532 3.40189C644.099 6.33523 634.199 10.3686 630.532 12.9352C623.199 17.3352 623.199 17.3352 630.532 15.5019C662.066 8.53523 695.066 10.7352 732.099 22.8352C751.532 29.0686 768.032 45.9352 768.032 59.1352C768.032 70.8686 777.566 73.0686 797.366 66.8352C811.666 62.4352 812.399 61.7019 803.232 61.3352C795.532 60.9686 787.099 55.4686 772.066 40.4352C760.699 29.0686 743.099 15.8686 732.466 10.7352C709.366 0.101891 673.066 -3.1981 652.532 3.40189Z" fill="black"/>
<path d="M530.799 44.4685C510.266 58.0352 496.699 80.7685 496.699 100.568C496.699 115.602 488.999 133.935 479.099 143.102C473.966 147.502 470.666 155.935 469.199 170.602C468.099 181.968 466.266 195.902 465.533 201.768C463.699 214.968 475.799 297.102 483.866 329.002C491.933 360.535 498.166 369.702 510.633 368.235C524.933 366.768 537.399 338.902 555.733 268.135C570.399 211.302 571.133 207.268 571.499 148.968C571.866 106.802 570.399 83.3351 566.733 71.9685C564.166 62.8018 561.233 56.9352 560.499 59.1352C560.133 60.9685 558.666 99.1018 557.933 143.468C555.733 236.235 549.499 278.035 532.633 315.068C517.599 347.702 512.833 351.368 506.233 335.235C497.799 315.068 485.333 245.035 483.133 205.068C480.933 168.768 481.299 167.302 490.466 156.668C497.066 148.602 500.366 139.435 502.199 124.402C505.866 88.8351 510.266 78.5685 532.999 54.3685C544.733 41.9019 553.166 31.6352 552.066 31.6352C550.966 31.6352 541.433 37.5018 530.799 44.4685Z" fill="black"/>
<path d="M826.333 63.9017C834.033 65.0017 832.2 66.4684 815.7 72.3351C793.333 80.0351 781.233 89.9351 789.666 93.2351C792.6 93.9684 803.233 99.4684 813.5 104.602C844.667 121.102 847.967 121.102 831.467 104.602C822.667 96.1684 815.7 88.1018 815.7 86.6351C815.7 83.3351 832.933 75.6351 840.633 75.6351C846.133 75.6351 846.133 74.9017 841.367 71.9684C837.333 69.4017 839.9 68.3017 851.633 68.3017C866.667 68.3017 867.033 68.6684 867.033 80.0351C867.033 86.2684 864.467 101.302 861.167 113.035C855.3 132.835 855.3 135.768 861.533 155.568C864.833 166.935 868.133 177.935 868.5 180.135C869.233 181.968 870.333 158.502 871.8 127.335C872.9 96.5351 872.9 69.0351 871.8 66.1017C870.7 62.8017 862.633 61.3351 843.933 61.7017C829.267 62.0684 821.567 62.8017 826.333 63.9017Z" fill="black"/>
<path d="M825.966 147.135C802.132 179.769 784.899 191.502 752.266 196.269C737.599 198.835 720.732 201.402 714.499 202.135C708.266 203.235 700.199 206.535 696.166 209.469C690.299 214.235 689.932 215.335 694.699 218.635C711.199 230.369 781.232 204.335 813.499 174.635C828.166 161.069 848.332 128.802 844.299 125.135C843.566 124.402 835.132 134.302 825.966 147.135Z" fill="black"/>
<path d="M839.532 197.001C836.599 205.801 831.099 211.301 815.699 219.367C804.699 225.234 793.332 232.201 790.399 235.134C779.032 246.134 783.066 374.467 796.266 431.301C803.232 462.467 803.232 537.634 795.899 577.967C777.566 679.901 725.499 767.167 664.266 798.334C656.566 802.367 649.232 808.234 648.132 811.167C645.199 819.234 641.899 813.001 630.899 779.634C620.266 747.734 614.032 715.467 613.666 688.701C613.299 678.067 611.832 669.634 610.366 669.634C602.666 669.634 600.466 730.501 607.066 761.301C609.266 771.567 622.832 802.734 637.132 830.234C651.066 857.734 665.732 889.634 669.766 900.634L676.366 920.801L674.532 894.034C673.066 876.067 669.766 861.401 663.899 850.034L655.099 832.801L689.566 797.234C763.632 719.867 798.466 659.001 812.032 582.734C817.899 550.834 814.966 466.134 806.899 431.301C803.966 418.101 798.832 377.401 795.166 340.734C787.832 260.801 788.199 259.701 821.566 227.801C834.399 215.701 845.766 201.401 847.232 195.534C850.532 181.601 843.566 183.068 839.532 197.001Z" fill="black"/>
<path d="M904.433 348.068C894.533 359.801 896 410.401 907.733 451.101C910.666 462.468 912.5 464.301 915.066 459.901C916.9 456.601 916.533 449.268 914.7 441.935C909.933 426.168 909.933 370.068 914.333 367.501C916.166 366.035 926.433 372.268 936.7 380.701C967.866 406.368 968.233 406.368 1014.43 402.701L1055.87 399.401L1017.73 398.668L979.6 398.301L956.133 377.035C933.033 356.868 915.066 343.301 910.666 343.301C909.2 343.301 906.633 345.501 904.433 348.068Z" fill="black"/>
<path d="M1135.8 472C1136.9 478.967 1139.47 491.067 1141.67 499.134C1143.87 507.2 1145.7 525.534 1145.7 539.467C1145.7 565.5 1151.57 594.834 1162.93 625.634C1167.33 637 1180.53 654.234 1206.2 680.634C1226.37 701.9 1247.27 727.567 1252.77 737.834C1281.73 791.734 1281.37 865.067 1252.03 991.934C1245.8 1018.7 1241.03 1047.67 1241.77 1056.1L1243.23 1071.13L1245.8 1056.47C1247.27 1048.4 1256.07 1010.27 1264.87 972.134C1286.87 878.267 1292.37 843.434 1292.37 803.1C1292.37 748.467 1286.13 735.634 1232.6 684.3C1172.47 626.367 1163.67 609.5 1156.7 543.867C1154.5 523.334 1150.1 496.934 1146.8 485.2C1140.2 461.367 1132.5 452.567 1135.8 472Z" fill="black"/>
<path d="M901.499 484.834C891.966 506.834 890.499 551.934 898.199 585.667C903.699 610.234 904.066 617.934 900.766 639.934C888.299 714 901.133 771.934 955.033 885.967C984.366 947.934 992.799 973.967 999.033 1022C1003.8 1057.93 1003.43 1092.77 999.033 1081.03C996.833 1076.27 988.399 1060.87 979.233 1046.2C956.866 1009.17 934.866 964.434 925.699 937.667C916.166 909.067 915.433 874.6 923.866 861.767C930.833 851.134 929.366 847.467 919.099 850.767C906.999 854.8 902.599 871.667 904.799 907.234C907.366 954.534 913.966 970.667 949.899 1017.97C967.133 1040.7 984.733 1066.73 989.133 1075.53C993.533 1084.33 998.299 1091.3 999.766 1091.3C1001.23 1091.3 1002.7 1094.97 1003.07 1099.37C1003.43 1106.33 1003.8 1105.97 1006.73 1096.8C1011.5 1081.03 1010.03 1005.87 1004.53 987.534C1001.97 979.1 986.199 934 969.699 887.8C923.133 756.9 915.066 721.7 913.233 638.467C912.866 618.3 910.299 590.8 907.733 577.234C904.066 558.167 904.066 543.134 906.999 513.067C909.199 491.8 910.299 473.1 909.199 472.367C908.099 471.267 904.799 476.767 901.499 484.834Z" fill="black"/>
<path d="M378.633 509.034C318.499 560.367 265.333 619.767 227.566 678.067C202.266 716.934 165.966 791.367 157.533 821.8C143.233 875.7 147.999 950.134 168.533 994.134C177.699 1013.2 199.333 1041.8 202.266 1038.5C202.999 1037.77 198.599 1020.9 192.366 1000.73C181.733 968.834 180.633 960.034 180.633 920.8C180.266 827.667 215.466 727.2 279.633 637C293.199 617.934 328.399 577.234 358.466 546.434C388.166 515.634 412.366 489.6 412.366 488.5C412.366 482.634 402.833 488.5 378.633 509.034Z" fill="black"/>
<path d="M417.866 634.434C413.832 659.734 417.499 690.901 427.399 714.001C448.666 764.234 511.732 859.201 553.899 904.301C570.766 922.267 585.433 940.967 586.533 945.734C587.999 950.501 586.166 964.434 582.866 976.167C563.066 1045.1 562.333 1049.13 565.999 1061.97C574.066 1091.67 585.066 1115.5 594.599 1123.2C608.166 1134.2 611.833 1133.83 604.499 1122.47C598.633 1113.67 598.633 1112.57 604.499 1108.53C607.799 1105.97 611.099 1096.8 612.199 1087.63C613.666 1073.33 613.299 1072.23 609.633 1079.2C604.133 1090.2 593.499 1089.83 586.166 1078.47C581.033 1070.4 580.299 1063.07 582.499 1027.87C583.966 1005.13 586.533 980.2 588.366 972.134C590.199 964.067 592.033 949.4 592.033 939.867C592.033 923.001 590.933 921.167 562.333 890.734C532.633 859.201 473.966 774.501 450.499 728.667C442.799 713.634 436.566 693.467 432.532 670.001C428.866 650.567 424.832 630.767 423.366 625.634C421.166 617.567 420.432 618.667 417.866 634.434Z" fill="black"/>
<path d="M83.0992 639.934C49.7326 666.334 25.1659 701.9 10.1326 745.534C-1.96743 781.1 -3.4341 836.834 6.83257 874.967C24.7992 942.434 81.2659 1019.43 152.033 1072.6C163.399 1081.03 161.933 1078.83 146.533 1065.27C79.0659 1005.5 41.2992 950.867 25.1659 888.9C17.4659 859.567 19.6659 793.934 29.1992 766.8C41.6659 730.867 77.9659 665.967 85.6659 665.967C86.7659 665.967 87.4992 689.434 87.4992 718.034C87.1326 747 88.2326 778.534 89.6992 788.8L92.2659 807.134L92.9992 788.8C93.3659 778.534 96.6659 741.5 100.699 706.3C109.133 633.334 109.499 625.634 104.733 625.634C102.899 625.634 93.3659 632.234 83.0992 639.934Z" fill="black"/>
<path d="M757.765 734.901C744.932 762.034 739.065 795.401 738.699 840.134C738.332 856.267 735.399 896.6 731.732 929.967C724.032 997.8 724.765 1032.27 733.199 1058.3C740.899 1081.03 747.499 1086.9 773.165 1091.67C802.132 1096.8 805.432 1094.6 784.165 1083.6C769.865 1076.63 764.365 1070.77 757.032 1056.47C748.232 1038.5 747.865 1036.3 748.232 961.134C749.332 839.034 756.299 753.234 768.399 721.334C775.732 702.267 768.399 711.067 757.765 734.901Z" fill="black"/>
<path d="M1492.57 766.067C1487.43 771.567 1483.03 778.534 1483.03 781.834C1483.03 785.134 1489.63 802.367 1497.7 820.334C1515.3 859.567 1519.33 876.434 1519.7 908.7C1520.07 984.234 1453.7 1043.63 1347 1064.17L1319.87 1069.3L1342.97 1067.1C1372.67 1064.53 1424.37 1049.87 1447.83 1037.03C1474.6 1022.37 1507.23 989.367 1518.97 964.067C1527.4 945.367 1528.87 938.4 1528.87 907.967C1528.87 877.167 1527.03 868 1514.57 830.6C1506.5 807.134 1501.37 785.5 1502.47 782.2C1506.5 771.567 1521.53 774.867 1534.37 789.167C1558.2 816.667 1572.87 867.267 1569.93 913.467C1564.07 1011.73 1495.87 1074.07 1375.6 1091.3L1352.87 1094.6L1382.2 1093.13C1509.07 1086.9 1593.77 997.8 1583.87 880.834C1578 812.634 1550.87 764.6 1514.57 758.734C1504.3 757.267 1500.27 758.367 1492.57 766.067Z" fill="black"/>
<path d="M977.033 776.701C977.033 788.067 992.067 821.434 1004.53 837.934C1011.5 846.734 1026.9 861.034 1039 869.834C1050.73 878.267 1061.73 887.434 1063.2 889.634C1066.87 895.501 1072.37 890.367 1072.37 880.834C1072.37 876.434 1075.3 861.034 1079.33 846.367L1086.3 820.334L1075.67 825.467C1044.5 841.967 999.033 820.334 982.167 781.467C979.233 774.867 977.4 773.034 977.033 776.701Z" fill="black"/>
<path d="M1148.63 854.067C1144.97 880.467 1137.27 928.867 1131.03 961.134C1118.93 1022 1116 1068.2 1122.97 1083.97C1126.63 1092.4 1127 1091.67 1127 1075.9C1127.37 1049.13 1140.93 950.867 1149.73 909.8C1158.53 868 1162.57 819.6 1157.8 811.167C1155.6 807.5 1152.67 821.434 1148.63 854.067Z" fill="black"/>
<path d="M320.699 833.167C313.366 837.567 312.999 838.3 318.866 837.2C330.232 835.367 358.099 850.767 373.499 867.634C381.199 876.434 392.566 894.034 398.799 907.6C409.066 928.867 410.532 935.467 410.532 964.8C410.532 993.4 409.066 1000.73 400.632 1017.97L390.732 1038.13L403.566 1023.47C424.466 999.267 431.799 974.334 429.599 935.467C427.766 895.867 417.866 869.467 398.432 852.6C372.032 829.5 340.132 821.434 320.699 833.167Z" fill="black"/>
<path d="M375.332 1053.17C365.432 1065.27 336.466 1082.13 303.466 1094.97C284.766 1102.67 267.899 1110 266.432 1111.47C264.965 1112.93 276.332 1113.3 291.366 1111.83C367.632 1105.23 384.499 1104.87 399.532 1111.1L414.199 1116.97L404.666 1108.53C399.532 1103.77 385.966 1097.9 374.599 1095.33C362.499 1092.77 353.699 1088.73 353.699 1086.17C353.699 1083.6 360.299 1073.7 368.732 1064.17C376.799 1055 383.032 1047.3 381.932 1047.3C381.199 1047.3 378.266 1049.87 375.332 1053.17Z" fill="black"/>
</svg>
